<?xml version="1.0" ?><svg height="60px" version="1.1" viewBox="0 0 60 60" width="60px" xmlns="http://www.w3.org/2000/svg" xmlns:sketch="http://www.bohemiancoding.com/sketch/ns" xmlns:xlink="http://www.w3.org/1999/xlink"><title/><defs/><g fill="none" fill-rule="evenodd" id="flat" stroke="none" stroke-width="1"><g id="amazon"><path d="M30,60 C46.5685433,60 60,46.5685433 60,30 C60,13.4314567 46.5685433,0 30,0 C13.4314567,0 0,13.4314567 0,30 C0,46.5685433 13.4314567,60 30,60 Z" fill="#E08D2D"/><path d="M30.4209671,21.902223 C28.8406632,22.1124507 27.2599491,22.39782 25.9545164,23.0335689 C23.4121636,24.0977939 21.6931935,26.3634406 21.6931935,29.6928903 C21.6931935,33.8738043 24.3052897,35.9959221 27.6033329,35.9959221 C28.7044584,35.9959221 29.5975845,35.8566146 30.4205568,35.643854 C31.7276306,35.2183329 32.8267048,34.4398994 34.1321375,33.022762 C34.8886485,34.086987 35.0937762,34.582584 36.4004397,35.7139299 C36.7442337,35.8570367 37.0880277,35.8570367 37.3620783,35.643854 C38.1866917,34.9354964 39.6287395,33.6614659 40.3868915,32.9526861 C40.729865,32.6668946 40.6601216,32.2439064 40.4558144,31.8884611 C39.6984829,30.897267 38.943613,30.0458026 38.943613,28.1360232 L38.943613,21.7595383 C38.943613,19.0658376 39.1479201,16.5874302 37.225053,14.7477268 C35.6447492,13.2575585 33.1704988,12.6923077 31.2468112,12.6923077 L30.4205568,12.6923077 C26.9157448,12.9050683 23.2049847,14.4615131 22.3787303,18.9256858 C22.243346,19.4909366 22.6560629,19.7041193 22.9309341,19.7771502 L26.7787195,20.2727472 C27.1914365,20.1997163 27.3965642,19.8468039 27.4646666,19.4909366 C27.8101016,17.9340696 29.0462012,17.1560582 30.4205568,17.0129514 L30.697069,17.0129514 C31.5192208,17.0129514 32.4135776,17.3683966 32.8956277,18.0737992 C33.4429084,18.9256858 33.376447,20.0595645 33.376447,21.0507586 L33.376447,21.6168537 C32.483321,21.6894624 31.4523492,21.7595383 30.4209671,21.902223 Z M33.3768573,25.7272697 C33.3768573,27.3571676 33.4433187,28.6311981 32.6203463,30.0453805 C32.139527,31.0365746 31.3149136,31.6748563 30.4209671,31.888039 C30.2839418,31.888039 30.0796346,31.9610699 29.8720453,31.9610699 C28.3606644,31.9610699 27.4650768,30.7566931 27.4650768,28.9845326 C27.4650768,26.7188859 28.7721506,25.6546609 30.4209671,25.1590639 C31.3153239,24.9463033 32.3462957,24.8762274 33.3768573,24.8762274 L33.3768573,25.7272697 L33.3768573,25.7272697 Z M46.035288,45.6136285 C47.7156941,44.1513217 48.4246155,41.4964582 48.4615385,40.1101374 L48.4615385,39.8792246 C48.4615385,39.5693709 48.3876925,39.340991 48.3142568,39.2253236 C47.9778473,38.8027574 45.5113918,38.4160736 43.3846278,39.0703967 C42.7877061,39.2650051 42.26381,39.5326444 41.7788881,39.8792246 C41.4055557,40.1498189 41.4798119,40.493022 41.8535546,40.4562954 C42.26381,40.3777767 42.7877061,40.3414723 43.3846278,40.2616871 C44.6917015,40.1493968 46.2227747,40.1101374 46.5952866,40.6091116 C47.116311,41.2621683 45.998365,44.1112181 45.5109816,45.3430342 C45.3636999,45.7297181 45.6988785,45.8842228 46.035288,45.6136285 L46.035288,45.6136285 Z M11.7235768,40.1101374 C16.5391548,44.6131473 22.8862162,47.3076923 29.9815835,47.3076923 C34.3869061,47.3076923 39.4638168,46.0366168 43.3846278,43.6130882 C43.9085239,43.3028123 44.4295483,42.9566543 44.9144702,42.5733475 C45.5868788,42.0743733 44.9899572,41.302272 44.3175486,41.6091707 C44.0192929,41.7248381 43.6828834,41.8801871 43.385038,41.9954324 C39.0892536,43.7287556 34.5748031,44.5371613 30.3914287,44.5371613 C23.7448808,44.5371613 17.3239734,42.6497556 12.1342424,39.5330665 C11.6485,39.2650051 11.3116803,39.7635572 11.7235768,40.1101374 L11.7235768,40.1101374 Z" fill="#FFFFFF"/></g></g></svg>