<?xml version="1.0" ?><!DOCTYPE svg  PUBLIC '-//W3C//DTD SVG 1.1//EN'  'http://www.w3.org/Graphics/SVG/1.1/DTD/svg11.dtd'><svg height="128px" id="Layer_1" style="enable-background:new 0 0 128 128;" version="1.1" viewBox="0 0 128 128" width="128px" xml:space="preserve" xmlns="http://www.w3.org/2000/svg" xmlns:xlink="http://www.w3.org/1999/xlink"><style type="text/css">
<![CDATA[
	.st0{fill-rule:evenodd;clip-rule:evenodd;}
]]>
</style><path d="M100.722,95.381c-2.678-2.674-5.898-4.027-9.651-4.027H64.066c-3.755,0-6.947-1.314-9.57-3.952  c-2.63-2.641-3.936-5.833-3.936-9.605v-9.61h38.478c3.469,0,6.459-1.247,8.941-3.725c2.482-2.497,3.729-5.482,3.729-8.958  c0-3.484-1.247-6.467-3.734-8.956c-2.491-2.482-5.49-3.728-8.974-3.728h-38.44V22.967c0-3.758-1.338-6.976-4.004-9.655  c-2.648-2.684-5.849-4.031-9.572-4.031c-3.828,0-7.082,1.327-9.736,3.952c-2.657,2.634-3.983,5.878-3.983,9.746v54.827  c0,11.277,3.983,20.911,11.963,28.909c7.981,8.008,17.603,12.004,28.851,12.004h27c3.747,0,6.964-1.346,9.642-4.033  c2.678-2.672,4.012-5.894,4.012-9.648C104.734,101.283,103.399,98.067,100.722,95.381z"/></svg>